<?xml version="1.0" encoding="utf-8"?>
<!-- Generator: Adobe Illustrator 24.0.3, SVG Export Plug-In . SVG Version: 6.00 Build 0)  -->
<svg version="1.1" id="圖層_1" xmlns="http://www.w3.org/2000/svg" xmlns:xlink="http://www.w3.org/1999/xlink" x="0px" y="0px"
	 viewBox="0 0 20 20" style="enable-background:new 0 0 20 20;" xml:space="preserve">
<style type="text/css">
	.st0{fill:#0057AC;}
</style>
<path id="路径_3" class="st0" d="M10,19.5c-5.2,0-9.5-4.2-9.5-9.5c0-5.2,4.2-9.5,9.5-9.5s9.5,4.2,9.5,9.5v0.1
	C19.4,15.3,15.2,19.5,10,19.5z M17.9,10c0-1.3-1.1-2.3-2.4-2.3s-2.3,1.1-2.3,2.4s1.1,2.3,2.4,2.3C16.9,12.4,17.9,11.3,17.9,10
	L17.9,10L17.9,10z M5.6,15.6c1.3,0,2.4-1.1,2.4-2.4s-1.1-2.4-2.4-2.4s-2.4,1-2.4,2.3C3.2,14.6,4.3,15.6,5.6,15.6L5.6,15.6z
	 M11.7,7.1c1.3,0,2.4-1.1,2.4-2.4S13,2.3,11.7,2.3S9.3,3.4,9.3,4.7l0,0C9.3,6.1,10.4,7.1,11.7,7.1L11.7,7.1z M14.1,15.3
	c0-1.3-1.1-2.4-2.4-2.4S9.3,14,9.3,15.3s1.1,2.4,2.4,2.4l0,0C13.1,17.6,14.1,16.5,14.1,15.3L14.1,15.3z M7.9,6.8
	c0-1.3-1.1-2.3-2.4-2.3S3.2,5.6,3.2,6.9s1.1,2.3,2.4,2.3C6.8,9.1,7.9,8.1,7.9,6.8z M10,8.8c-0.7,0-1.2,0.5-1.2,1.2s0.5,1.2,1.2,1.2
	s1.2-0.5,1.2-1.2l0,0C11.2,9.4,10.7,8.8,10,8.8L10,8.8L10,8.8z"/>
</svg>
