<?xml version="1.0" encoding="utf-8"?>
<!-- Generator: Adobe Illustrator 24.0.3, SVG Export Plug-In . SVG Version: 6.00 Build 0)  -->
<svg version="1.1" id="圖層_1" xmlns="http://www.w3.org/2000/svg" xmlns:xlink="http://www.w3.org/1999/xlink" x="0px" y="0px"
	 viewBox="0 0 20 20" style="enable-background:new 0 0 20 20;" xml:space="preserve">
<style type="text/css">
	.st0{fill:#0057AC;}
</style>
<path id="路径_4" class="st0" d="M10,16.1c-1,0-2.1,0-3.1-0.1c-1,0-1.9-0.1-2.9-0.2c-0.7-0.1-1.4-0.1-2-0.2
	c-0.7-0.1-1.3-0.7-1.4-1.4c-0.2-1-0.3-2.1-0.3-3.1c0-0.6-0.1-1.1,0-1.7c0-0.9,0.1-1.7,0.2-2.6c0-0.4,0.1-0.7,0.1-1.1
	C0.7,5,1.4,4.4,2.1,4.4C3,4.3,3.8,4.2,4.7,4.1C5.7,4,6.8,4,7.9,3.9c1.5-0.1,3-0.1,4.5,0c1,0,2,0.1,2.9,0.2s1.7,0.2,2.6,0.3
	c0.7,0.1,1.3,0.7,1.5,1.4c0.1,0.7,0.2,1.4,0.2,2.1c0.1,0.9,0.1,1.9,0.1,2.9c0,0.6-0.1,1.1-0.1,1.7c-0.1,0.6-0.1,1.2-0.2,1.8
	c-0.2,0.7-0.7,1.2-1.4,1.3c-0.6,0.1-1.1,0.1-1.7,0.2c-0.6,0.1-1.2,0.1-1.8,0.2c-0.5,0-0.9,0-1.4,0C12.1,16.1,11,16.1,10,16.1z
	 M8.2,10c0,0.9,0,1.7,0,2.6c0,0.2,0.1,0.4,0.3,0.4c0.2,0.1,0.4,0.1,0.5,0c1.3-0.8,2.6-1.7,3.9-2.5c0.2-0.1,0.3-0.3,0.2-0.6
	c0-0.1-0.1-0.2-0.2-0.2C11.6,8.8,10.3,7.9,9,7.1C8.8,7,8.6,6.9,8.4,7C8.3,7.1,8.2,7.3,8.2,7.5C8.2,8.3,8.2,9.2,8.2,10z"/>
</svg>
