<?xml version="1.0" encoding="utf-8"?>
<!-- Generator: Adobe Illustrator 24.0.3, SVG Export Plug-In . SVG Version: 6.00 Build 0)  -->
<svg version="1.1" id="圖層_1" xmlns="http://www.w3.org/2000/svg" xmlns:xlink="http://www.w3.org/1999/xlink" x="0px" y="0px"
	 viewBox="0 0 20 20" style="enable-background:new 0 0 20 20;" xml:space="preserve">
<style type="text/css">
	.st0{fill:#FFFFFF;}
</style>
<path id="路径_5" class="st0" d="M16.2,17.9c0.1,0,0.2,0,0.3-0.1c0.5-0.2,0.8-0.6,0.8-1.1c0-0.1,0-0.1,0.1-0.1
	c0.2,0,0.4-0.1,0.6-0.1c0.7-0.2,1.1-0.8,1.3-1.5c0-0.4,0.1-0.8,0-1.2c0-0.1,0-0.2,0-0.3c-0.1-0.4-0.3-0.7-0.6-1c0,0-0.1-0.1-0.1-0.1
	c0-0.1,0-0.3,0-0.4c0-0.7,0-1.5-0.2-2.2c-0.1-0.6-0.3-1.2-0.5-1.7c-0.3-0.8-0.8-1.5-1.3-2.2c-0.1,0-0.1-0.1,0-0.2c0,0,0,0,0,0
	c0.2-0.3,0.2-0.6,0-0.9c-0.3-0.3-0.7-0.6-1.1-0.9c-1.1-0.8-2.3-1.4-3.6-1.7c-0.5-0.1-1-0.2-1.5-0.2c-0.5,0-0.9,0-1.4,0.1
	C8.4,2.2,7.8,2.3,7.3,2.5C6.5,2.7,5.8,3.1,5.1,3.5C4.5,3.9,4,4.4,3.5,4.9C3.2,5.1,3.2,5.4,3.4,5.7c0.1,0.1,0.1,0.2,0,0.2
	C2.9,6.5,2.6,7.1,2.2,7.8C2,8.3,1.8,8.9,1.7,9.4c-0.1,0.5-0.2,0.9-0.2,1.4c-0.1,0.5-0.1,1,0,1.5c0,0.1,0,0.2-0.1,0.2
	c-0.3,0.3-0.5,0.6-0.6,1c0,0.4-0.1,0.8,0,1.1c0,0.2,0,0.3,0.1,0.5c0.2,0.8,0.9,1.3,1.8,1.4c0.1,0,0.1,0,0.1,0.1c0,0.5,0.4,1,0.9,1.1
	c0.4,0.1,0.8,0.1,1.2,0c0.1,0,0.2,0,0.3-0.1C5.7,17.6,6,17.1,6,16.6c0-1.5,0-2.9,0-4.4c0-0.2,0-0.3,0-0.5c-0.1-0.5-0.5-0.9-1-1
	c-0.3,0-0.7-0.1-1,0c-0.5,0-1,0.4-1.1,0.8c0,0.1-0.1,0.2-0.1,0.2c0,0,0-0.1,0-0.1c0-0.4,0-0.9,0.1-1.3c0.1-0.5,0.2-1,0.4-1.5
	c0.3-0.8,0.7-1.5,1.2-2.1c0.1-0.1,0.1-0.1,0.2,0C4.7,6.8,4.9,6.8,5,6.8c0.2,0,0.3-0.1,0.5-0.2C5.7,6.3,6,6.1,6.3,5.9
	c0.8-0.6,1.8-1,2.8-1.1c0.8-0.1,1.5-0.1,2.3,0.1C12,5,12.6,5.2,13.1,5.5c0.5,0.3,1,0.7,1.4,1.1c0.2,0.3,0.6,0.3,0.9,0.1
	c0,0,0.1,0,0.1,0c0,0,0,0,0,0c0.1,0.1,0.1,0.2,0.2,0.2c0.7,0.9,1.2,2,1.4,3.1c0.1,0.5,0.2,1,0.2,1.6c0,0,0,0.1,0,0.1c0,0,0,0,0,0
	c0-0.1,0-0.1-0.1-0.2c-0.1-0.5-0.5-0.8-1-0.9c-0.3,0-0.7-0.1-1,0c-0.7,0-1.2,0.6-1.2,1.3c0,1.5,0,3.1,0,4.6c0,0.5,0.3,1,0.8,1.2
	c0.1,0.1,0.3,0.1,0.5,0.1C15.6,17.9,15.9,17.9,16.2,17.9z"/>
</svg>
